<?xml version="1.0" encoding="UTF-8"?>
<svg width="800" height="800" viewBox="0 0 800 800" xmlns="http://www.w3.org/2000/svg">
  <!-- Blue Megaphone Icon Only -->
  <path fill="#2878F2" d="M200 245c-30 0-60 15-85 35-25 20-40 45-50 75-10 30-15 60-15 90s5 60 15 90c10 30 25 55 50 75 25 20 55 35 85 35h40c15 0 30-5 40-15l180 120c20 15 45 20 70 15s45-20 55-40c10-20 10-45 0-65L405 540c10-15 15-30 15-45v-90c0-15-5-30-15-45l180-120c10-20 10-45 0-65s-30-35-55-40c-25-5-50 0-70 15L280 270c-10-10-25-15-40-15h-40z"/>
  
  <!-- Megaphone opening/mouth -->
  <ellipse fill="white" cx="580" cy="400" rx="60" ry="120"/>
</svg>